<?xml version="1.0" encoding="UTF-8" standalone="no"?>
<!DOCTYPE svg PUBLIC "-//W3C//DTD SVG 1.1//EN" "http://www.w3.org/Graphics/SVG/1.1/DTD/svg11.dtd">
<svg width="100%" height="100%" viewBox="0 0 747 604" version="1.1" xmlns="http://www.w3.org/2000/svg" xmlns:xlink="http://www.w3.org/1999/xlink" xml:space="preserve" xmlns:serif="http://www.serif.com/" style="fill-rule:evenodd;clip-rule:evenodd;stroke-linejoin:round;stroke-miterlimit:2;">
    <g transform="matrix(1,0,0,1,-2578.205304,-936.743935)">
        <g transform="matrix(1,0,0,1,1725.463987,83.75737)">
            <g transform="matrix(0.707107,0.707107,-0.707107,0.707107,770.241683,-869.236117)">
                <g transform="matrix(0.000289,-1.087571,1.251675,0.000332,1035.28608,2373.692319)">
                    <path d="M1389,441.312L1389,622.688C1389,637.762 1374.915,650 1357.567,650L877.433,650C860.085,650 846,637.762 846,622.688L846,441.312C846,426.238 860.085,414 877.433,414L1357.567,414C1374.915,414 1389,426.238 1389,441.312Z" style="fill:rgb(43,102,255);"/>
                </g>
                <g transform="matrix(0.506459,-0.506459,0.513017,0.513017,595.216819,1444.869381)">
                    <path d="M1258,939.045L1258,1190.955C1258,1205.33 1246.178,1217 1231.618,1217L980.382,1217C965.822,1217 954,1205.33 954,1190.955L954,939.045C954,924.67 965.822,913 980.382,913L1231.618,913C1246.178,913 1258,924.67 1258,939.045Z" style="fill:rgb(43,102,255);"/>
                </g>
                <g transform="matrix(0.506459,-0.506459,0.513017,0.513017,595.216819,903.604349)">
                    <path d="M1258,939.045L1258,1190.955C1258,1205.33 1246.178,1217 1231.618,1217L980.382,1217C965.822,1217 954,1205.33 954,1190.955L954,939.045C954,924.67 965.822,913 980.382,913L1231.618,913C1246.178,913 1258,924.67 1258,939.045Z" style="fill:rgb(43,102,255);"/>
                </g>
            </g>
            <g>
                <g transform="matrix(0.964722,0,0,0.964722,385.65489,282.208506)">
                    <path d="M1258,943.803L1258,1186.197C1258,1203.198 1244.198,1217 1227.197,1217L984.803,1217C967.802,1217 954,1203.198 954,1186.197L954,943.803C954,926.802 967.802,913 984.803,913L1227.197,913C1244.198,913 1258,926.802 1258,943.803Z" style="fill:rgb(43,102,255);"/>
                </g>
                <g transform="matrix(1,0,0,1,-447,255)">
                    <rect x="1755" y="692" width="145" height="246" style="fill:rgb(43,102,255);"/>
                </g>
            </g>
        </g>
    </g>
</svg>
